<svg xmlns="http://www.w3.org/2000/svg" xmlns:svg="http://www.w3.org/2000/svg" id="Layer_1" width="1044.59" height="91.4" version="1.1" viewBox="0 0 1044.59 91.4"><metadata id="metadata826"/><style id="style815"/><g id="text830" aria-label="JOIN THE SERVER!" style="font-style:normal;font-weight:400;font-size:125.54907227px;line-height:1.25;font-family:sans-serif;letter-spacing:0;word-spacing:0;fill:#09f;fill-opacity:1;stroke:none;stroke-width:3.13872671"><path id="path849" d="M 1.2636185e-8,64.030027 C 2.5109815,82.862388 17.702419,91.399724 33.019406,91.399724 c 16.949125,0 33.89825,-10.922769 33.89825,-30.257326 V 1.2554905 H 24.482069 V 21.59444 H 44.69547 v 39.547958 c 0,5.147512 -5.273061,8.537337 -10.79722,8.537337 -5.52416,0 -11.424966,-2.887629 -12.680457,-10.043926 z" style="font-style:normal;font-variant:normal;font-weight:900;font-stretch:normal;font-size:125.54907227px;font-family:'Uni Sans';-inkscape-font-specification:'Uni Sans, Heavy';font-variant-ligatures:normal;font-variant-caps:normal;font-variant-numeric:normal;font-feature-settings:normal;text-align:start;writing-mode:lr-tb;text-anchor:start;stroke-width:3.13872671;fill:#09f;fill-opacity:1"/><path id="path851" d="m 78.328887,60.8913 c 0,20.33895 18.455713,30.508424 36.911423,30.508424 18.45572,0 36.78588,-10.169474 36.78588,-30.508424 V 30.508424 C 152.02619,10.169475 133.57048,-1.8310547e-7 115.11476,-1.8310547e-7 96.659051,-1.8310547e-7 78.328887,10.043926 78.328887,30.508424 Z M 100.80217,30.508424 c 0,-6.528551 7.03075,-10.043925 14.0615,-10.043925 7.28184,0 14.68924,3.138726 14.68924,10.043925 V 60.8913 c 0,6.403003 -7.1563,9.667278 -14.3126,9.667278 -7.15629,0 -14.43814,-3.138726 -14.43814,-9.667278 z" style="font-style:normal;font-variant:normal;font-weight:900;font-stretch:normal;font-size:125.54907227px;font-family:'Uni Sans';-inkscape-font-specification:'Uni Sans, Heavy';font-variant-ligatures:normal;font-variant-caps:normal;font-variant-numeric:normal;font-feature-settings:normal;text-align:start;writing-mode:lr-tb;text-anchor:start;stroke-width:3.13872671;fill:#09f;fill-opacity:1"/><path id="path853" d="M 186.30893,1.2554905 H 163.83565 V 90.144234 h 22.47328 z" style="font-style:normal;font-variant:normal;font-weight:900;font-stretch:normal;font-size:125.54907227px;font-family:'Uni Sans';-inkscape-font-specification:'Uni Sans, Heavy';font-variant-ligatures:normal;font-variant-caps:normal;font-variant-numeric:normal;font-feature-settings:normal;text-align:start;writing-mode:lr-tb;text-anchor:start;stroke-width:3.13872671;fill:#09f;fill-opacity:1"/><path id="path855" d="m 200.37239,90.144234 h 22.47329 V 54.613846 l -2.88763,-17.200223 0.62774,-0.125549 7.78405,17.827969 20.08785,35.028191 h 22.72438 V 1.2554905 H 248.83433 V 41.556743 c 0.12555,0 2.38544,15.316987 2.51099,15.316987 L 250.71757,56.999279 243.18463,39.17131 221.71574,1.2554905 h -21.34335 z" style="font-style:normal;font-variant:normal;font-weight:900;font-stretch:normal;font-size:125.54907227px;font-family:'Uni Sans';-inkscape-font-specification:'Uni Sans, Heavy';font-variant-ligatures:normal;font-variant-caps:normal;font-variant-numeric:normal;font-feature-settings:normal;text-align:start;writing-mode:lr-tb;text-anchor:start;stroke-width:3.13872671;fill:#09f;fill-opacity:1"/><path id="path857" d="M 369.98134,22.473284 V 1.1299415 H 300.0505 V 22.473284 h 23.60323 v 67.67095 h 22.72438 v -67.67095 z" style="font-style:normal;font-variant:normal;font-weight:900;font-stretch:normal;font-size:125.54907227px;font-family:'Uni Sans';-inkscape-font-specification:'Uni Sans, Heavy';font-variant-ligatures:normal;font-variant-caps:normal;font-variant-numeric:normal;font-feature-settings:normal;text-align:start;writing-mode:lr-tb;text-anchor:start;stroke-width:3.13872671;fill:#09f;fill-opacity:1"/><path id="path859" d="m 401.48633,56.622631 h 25.61201 v 33.521603 h 22.59884 V 1.2554905 H 427.09834 V 34.902642 H 401.48633 V 1.2554905 H 378.8875 V 90.144234 h 22.59883 z" style="font-style:normal;font-variant:normal;font-weight:900;font-stretch:normal;font-size:125.54907227px;font-family:'Uni Sans';-inkscape-font-specification:'Uni Sans, Heavy';font-variant-ligatures:normal;font-variant-caps:normal;font-variant-numeric:normal;font-feature-settings:normal;text-align:start;writing-mode:lr-tb;text-anchor:start;stroke-width:3.13872671;fill:#09f;fill-opacity:1"/><path id="path861" d="m 486.45557,22.347735 h 39.17131 V 1.2554905 H 463.73119 V 90.144234 h 61.89569 V 68.92644 H 486.45557 V 55.618239 h 36.03258 V 36.158133 h -36.03258 z" style="font-style:normal;font-variant:normal;font-weight:900;font-stretch:normal;font-size:125.54907227px;font-family:'Uni Sans';-inkscape-font-specification:'Uni Sans, Heavy';font-variant-ligatures:normal;font-variant-caps:normal;font-variant-numeric:normal;font-feature-settings:normal;text-align:start;writing-mode:lr-tb;text-anchor:start;stroke-width:3.13872671;fill:#09f;fill-opacity:1"/><path id="path863" d="m 556.07647,75.329443 c 8.28624,10.671671 19.58566,16.070281 30.25733,16.070281 16.32138,0 34.40044,-9.41618 35.15374,-26.616403 1.00439,-21.845538 -14.81479,-27.369698 -30.63397,-30.257326 -6.9052,-1.506589 -11.55052,-4.017571 -11.80162,-8.286239 0.37665,-10.295024 16.32138,-10.671671 25.61201,-0.753295 L 619.3532,14.187045 C 610.18812,3.0131776 599.76755,-1.8310547e-7 588.97033,-1.8310547e-7 572.64895,-1.8310547e-7 556.82977,9.1650821 556.82977,26.616403 c 0,16.949125 13.0571,25.988658 27.36969,28.248541 7.28185,1.004393 15.44254,3.892022 15.19144,8.913985 -0.62774,9.541729 -20.2134,9.039533 -29.12738,-1.757687 z" style="font-style:normal;font-variant:normal;font-weight:900;font-stretch:normal;font-size:125.54907227px;font-family:'Uni Sans';-inkscape-font-specification:'Uni Sans, Heavy';font-variant-ligatures:normal;font-variant-caps:normal;font-variant-numeric:normal;font-feature-settings:normal;text-align:start;writing-mode:lr-tb;text-anchor:start;stroke-width:3.13872671;fill:#09f;fill-opacity:1"/><path id="path865" d="m 653.9361,22.347735 h 39.17131 V 1.2554905 H 631.21172 V 90.144234 h 61.89569 V 68.92644 H 653.9361 V 55.618239 h 36.03258 V 36.158133 H 653.9361 Z" style="font-style:normal;font-variant:normal;font-weight:900;font-stretch:normal;font-size:125.54907227px;font-family:'Uni Sans';-inkscape-font-specification:'Uni Sans, Heavy';font-variant-ligatures:normal;font-variant-caps:normal;font-variant-numeric:normal;font-feature-settings:normal;text-align:start;writing-mode:lr-tb;text-anchor:start;stroke-width:3.13872671;fill:#09f;fill-opacity:1"/><path id="path867" d="m 752.3528,90.144234 h 27.99744 L 756.11927,59.635809 C 766.91649,56.245984 773.57059,46.955353 773.57059,30.508424 773.0684,9.6672784 758.88135,1.2554905 740.55119,1.2554905 H 705.0208 V 90.144234 h 22.72438 V 61.895692 h 4.01757 z M 727.74518,42.561135 V 22.222186 h 13.18265 c 14.18705,0 14.18705,20.338949 0,20.338949 z" style="font-style:normal;font-variant:normal;font-weight:900;font-stretch:normal;font-size:125.54907227px;font-family:'Uni Sans';-inkscape-font-specification:'Uni Sans, Heavy';font-variant-ligatures:normal;font-variant-caps:normal;font-variant-numeric:normal;font-feature-settings:normal;text-align:start;writing-mode:lr-tb;text-anchor:start;stroke-width:3.13872671;fill:#09f;fill-opacity:1"/><path id="path869" d="m 821.53623,44.69547 -4.01757,20.966695 h -0.37665 L 813.12444,44.56992 799.18849,1.1299415 h -24.10542 l 32.01502,88.8887435 h 20.59004 L 859.70315,1.1299415 h -24.10543 z" style="font-style:normal;font-variant:normal;font-weight:900;font-stretch:normal;font-size:125.54907227px;font-family:'Uni Sans';-inkscape-font-specification:'Uni Sans, Heavy';font-variant-ligatures:normal;font-variant-caps:normal;font-variant-numeric:normal;font-feature-settings:normal;text-align:start;writing-mode:lr-tb;text-anchor:start;stroke-width:3.13872671;fill:#09f;fill-opacity:1"/><path id="path871" d="m 888.35975,22.347735 h 39.17131 V 1.2554905 h -61.8957 V 90.144234 h 61.8957 V 68.92644 H 888.35975 V 55.618239 h 36.03258 V 36.158133 h -36.03258 z" style="font-style:normal;font-variant:normal;font-weight:900;font-stretch:normal;font-size:125.54907227px;font-family:'Uni Sans';-inkscape-font-specification:'Uni Sans, Heavy';font-variant-ligatures:normal;font-variant-caps:normal;font-variant-numeric:normal;font-feature-settings:normal;text-align:start;writing-mode:lr-tb;text-anchor:start;stroke-width:3.13872671;fill:#09f;fill-opacity:1"/><path id="path873" d="m 986.77645,90.144234 h 27.99745 L 990.54292,59.635809 C 1001.3401,56.245984 1007.9942,46.955353 1007.9942,30.508424 1007.492,9.6672784 993.305,1.2554905 974.97483,1.2554905 H 939.44445 V 90.144234 h 22.72438 V 61.895692 h 4.01757 z M 962.16883,42.561135 V 22.222186 h 13.18265 c 14.18704,0 14.18704,20.338949 0,20.338949 z" style="font-style:normal;font-variant:normal;font-weight:900;font-stretch:normal;font-size:125.54907227px;font-family:'Uni Sans';-inkscape-font-specification:'Uni Sans, Heavy';font-variant-ligatures:normal;font-variant-caps:normal;font-variant-numeric:normal;font-feature-settings:normal;text-align:start;writing-mode:lr-tb;text-anchor:start;stroke-width:3.13872671;fill:#09f;fill-opacity:1"/><path id="path875" d="m 1020.2333,62.523438 h 23.1011 l 1.2554,-61.77014375 h -25.612 z m -0.7533,16.446928 c 0,6.905199 5.5242,12.429358 12.4294,12.429358 7.0307,0 12.6804,-5.524159 12.6804,-12.429358 0,-7.030748 -5.6497,-12.680456 -12.6804,-12.680456 -6.9052,0 -12.4294,5.649708 -12.4294,12.680456 z" style="font-style:normal;font-variant:normal;font-weight:900;font-stretch:normal;font-size:125.54907227px;font-family:'Uni Sans';-inkscape-font-specification:'Uni Sans, Heavy';font-variant-ligatures:normal;font-variant-caps:normal;font-variant-numeric:normal;font-feature-settings:normal;text-align:start;writing-mode:lr-tb;text-anchor:start;stroke-width:3.13872671;fill:#09f;fill-opacity:1"/></g></svg>